<svg xmlns="http://www.w3.org/2000/svg" width="252.07" height="121.4" viewBox="0 0 252.07 121.4"><title>logo-unilever-desktop</title><path d="M23.94 121.4c-3.44.37-6.58-1.61-7-4.43L0 .92 96 0l-5.47 108.84c-.15 3-3.32 5.76-7 6.16z" fill="#0781c0"/><path d="M51.33 100.16a2.05 2.05 0 0 0 1.79-1.11 11.15 11.15 0 0 1-.62-2.87c-.17-2.87.92-5.57 2.12-5.65.88-.05 1.58.79 1.66 2.15a10.45 10.45 0 0 1-1.56 6.36 2.1 2.1 0 0 0 1.74 1.36 1.13 1.13 0 0 0 .73-.27 3 3 0 0 1-.12-.86c0-2.07 1.32-3.82 2.47-3.82.91 0 1.44 1.21 1.44 2s-.79 1.72-2 2.46a1.4 1.4 0 0 0 .91.36c1.67 0 2.55-2 3.2-3.91.12-.36.32-.86.73-.86.7 0 1 4.68 2.17 4.68.5 0 .91-1 .91-1.83 0-.59-.21-.65-.21-1.51s.5-1.75 1.18-1.75c.41 0 .56.41.56.92 0 1.9-1.35 5.42-3.34 5.42-1.5 0-1.38-2.61-1.91-2.61s-1.41 2.64-4.31 2.64a1.86 1.86 0 0 1-1.38-.71 3.36 3.36 0 0 1-2 .68c-1.08 0-1.55-1.13-2-1.13s-1.11 1.16-2.88 1.16c-1.41 0-1.64-1.89-2.14-1.89s-1.12 1.89-1.85 1.89c-1.23 0-1.5-3.29-2.58-3.29-.85 0-3.54 3.34-4.27 3.26-.29 0-.42-.25-.39-.55s.39-1.51.53-2c.24-.9.45-1.89.58-2.2a.78.78 0 0 1 .71-.52c.13 0 .17.26.21.47.15.73.36 1.48.59 1.48.41 0 1.77-2.64 2.57-2.64 1 0 1.09 4.15 2.41 4.15.44 0 .76-.53 1.06-1.19 0-1.1.32-2.66 1.2-2.66.62 0 .91 1.39.47 2.61 0 1.45.94 1.8 1.56 1.8m23.53-3.57c-.36 1.52-1.47 3.76-3.11 3.76-.38 0-1.06-.15-1.06-.53s2.59-.44 2.59-2.44a1.84 1.84 0 0 0-1.67-1.78c-1.32 0-2.61 1.45-2.61 3.46a2.11 2.11 0 0 0 2.23 2.4c1.94 0 3.11-1.6 3.73-2.93.29.89.47 2.93 1.2 2.93.29 0 .5-.15.85-.95.88-2 1.73-4.27 2.9-4.27.44 0 .18.8 1.23.8a.86.86 0 0 0 .85-.89c0-.68-.62-1.21-1.55-1.21-2.76 0-3.34 4.18-3.78 4.18-.73 0-.5-3.35-1-3.35s-.7.56-.76.83m-19.5-3.13c-.05-.83-.25-1.2-.69-1.17s-.85 1.89-.74 3.84c.08 1.27.26 1.47.44 1.46s1.1-2.29 1-4.13m-4.75-1.74a.86.86 0 0 0-.91-.8 1.17 1.17 0 0 0-1 1.33.86.86 0 0 0 .88.89 1.26 1.26 0 0 0 1.03-1.42m9.13 6c0-.5-.27-.92-.59-.92s-.88.3-.88 1.24a1.85 1.85 0 0 0 .34 1.33 1.53 1.53 0 0 0 1.09-1.57m11.47-1c.62 0 .79.74.65 1.18a1.88 1.88 0 0 1-1.5 1.1c-.18-.45-.27-2.28.85-2.28m-33.78-2.1a9.29 9.29 0 0 1-.4-1.33 1.55 1.55 0 0 1 .84-1.79c.53-.15.73.12.94.74a13 13 0 0 1 .2 4c-.12 2.43-1.32 5.36-4.31 5.3-2.58-.06-3.73-1.75-3.84-4.32a11.92 11.92 0 0 1 .53-4.14c.26-.92.5-1.25 1.32-1.42.64-.12.59.56.44 1.36a15.91 15.91 0 0 0-.35 4.65c.12 2.13 1.09 3 2.14 3 1.58 0 2.29-1.3 2.58-3.23a5.67 5.67 0 0 0-.09-2.75" fill="#fefefe"/><path d="M109.12 52.61a3.58 3.58 0 0 0-2.65-1.05c-2.44 0-4.22 2.82-4.22 6.8 0 2.8 1.09 4 2.92 4a4.82 4.82 0 0 0 3.15-1.24l1.19 1.79a6.85 6.85 0 0 1-4.65 1.71c-3.26 0-5.51-2.09-5.51-6.21 0-5.2 3-9 7.07-9a5.51 5.51 0 0 1 4.26 1.66zM113.27 60.03c0 1.75.63 2.53 1.92 2.53 2.19 0 3-2.86 3-5.16 0-1.71-.63-2.53-1.9-2.53-1.86 0-3 2.19-3 5.16m7.7-2.44c0 3.92-2.17 7-5.86 7-2.86 0-4.61-1.79-4.61-4.74 0-3.6 2-7 5.91-7 2.88 0 4.57 1.85 4.57 4.76M128.15 64.28l1-7.33a5.61 5.61 0 0 0 .08-.93c0-.78-.27-1-.71-1-.71 0-1.71.78-2.84 2.93l-.88 6.32h-2.67l1.56-11.14h2.32l-.16 2.27c1.17-1.75 2.4-2.53 3.76-2.53a2.2 2.2 0 0 1 2.3 2.25 4.56 4.56 0 0 1 3.69-2.3c1.38 0 2.38.82 2.38 2.7a7.11 7.11 0 0 1-.06.91l-1.11 7.86h-2.67l1-7.33a8.31 8.31 0 0 0 .06-.91c0-.8-.25-1-.71-1-.69 0-1.71.78-2.82 2.89l-.88 6.36zM147.29 56.95c0-1.41-.6-2-1.25-2-.86 0-1.94.84-3 2.91l-.52 3.62a2.4 2.4 0 0 0 2 1.07c1.31 0 2.84-2.09 2.84-5.62m-5.07 6.36l-.73 5.27-2.69.3 2.19-15.73h2.32l-.25 2.27a4.83 4.83 0 0 1 3.82-2.53c1.84 0 3.11 1.24 3.11 4.07 0 4.68-2.38 7.71-5 7.71a3.78 3.78 0 0 1-2.84-1.28M158.51 55.79a2.51 2.51 0 0 0-.9-.15c-1.06 0-2.09.93-3 3.45l-.73 5.18h-2.67l1.57-11.14h2.32l-.23 2.72c1-2.15 2.23-3 3.4-3a3.5 3.5 0 0 1 1.06.15zM165.48 60.6l.83-5.46a3.49 3.49 0 0 0-1.46-.29c-1.73 0-3.34 1.69-3.34 5.2 0 1.87.73 2.51 1.59 2.51s1.65-.74 2.38-2zm2.61.67c-.15.93 0 1.24.52 1.47l-.79 1.83a2.3 2.3 0 0 1-2.3-1.9 4.23 4.23 0 0 1-3.28 1.92c-2.09 0-3.51-1.43-3.51-4.53 0-4.4 2.71-7.25 6.11-7.25a8.65 8.65 0 0 1 4.3 1.1z" fill="#e61c7e"/><path d="M124.16 72.81l-2.47 20.1c-.87 6.82-5.15 10.75-11.86 10.75-6.89 0-10.48-3.45-10.48-9.44a16.89 16.89 0 0 1 .13-2.05l2.38-19.36h5.74l-2.4 19.59a14.07 14.07 0 0 0-.13 1.84c0 3.45 1.6 4.89 4.81 4.89 3.46 0 5.54-2.18 6-6.21l2.47-20.15zM138.76 103l2-15.12a15.12 15.12 0 0 0 .13-1.79c0-1.84-.65-2.27-1.86-2.27-1.65 0-3.72 1.7-6.06 6.07L131.15 103h-5.55l3.25-23.12h4.81l-.35 4.59c2.47-3.63 5.24-5.24 8.1-5.24 3.12 0 5.2 1.79 5.2 5.77a15.94 15.94 0 0 1-.13 1.92L144.3 103zM153.13 71.63a3.49 3.49 0 1 1 3.47 3.41 3.33 3.33 0 0 1-3.46-3.41zm-3.59 31.38l3.2-23.12h5.54l-3.2 23.12zM169.6 102.83a9.33 9.33 0 0 1-3.81.83c-3 0-4.94-1.66-4.94-5.11a10 10 0 0 1 .13-1.53l3.62-26.4 5.67-.61-3.85 27.31c-.17 1.35.17 1.79 1.08 1.79a3.1 3.1 0 0 0 1.21-.22zM177.42 90.77c7-.61 8.88-2.49 8.88-5.24 0-1.49-1-2.32-2.6-2.32-2.86 0-5.54 2.8-6.28 7.56m-.17 3.54c.17 3.5 1.86 5 4.16 5a9.43 9.43 0 0 0 5.76-2l2.21 3.5a13.68 13.68 0 0 1-8.18 2.84c-6.19 0-9.61-3.63-9.61-10 0-8.74 5.33-14.42 12.47-14.42 5.07 0 8 2.36 8 6.12 0 4.63-4.16 8.13-14.77 9M193.05 79.89h5.81l2.29 18.53h.17l7.58-18.53h5.81L203.92 103h-6.54l-4.33-23.11zM219.29 90.77c7-.61 8.88-2.49 8.88-5.24 0-1.49-1-2.32-2.6-2.32-2.86 0-5.54 2.8-6.28 7.56m-.17 3.54c.17 3.5 1.86 5 4.16 5a9.43 9.43 0 0 0 5.76-2l2.21 3.5a13.67 13.67 0 0 1-8.18 2.84c-6.19 0-9.61-3.63-9.61-10 0-8.74 5.33-14.42 12.47-14.42 5.07 0 8 2.36 8 6.12 0 4.63-4.16 8.13-14.77 9M250.3 85.4a5.21 5.21 0 0 0-1.86-.31c-2.21 0-4.33 1.92-6.15 7.17l-1.52 10.75h-5.54l3.25-23.12h4.81l-.48 5.64c2-4.46 4.63-6.29 7.06-6.29a7.29 7.29 0 0 1 2.21.31z" fill="#0781c0"/><path d="M71.67 54.11a.68.68 0 0 1-.71-.34c-.14-.28-.09-.73-.36-.93a2.75 2.75 0 0 0 .77.08c.71 0 1.38-.48 1.9-.48a.4.4 0 0 1 .45.44c0 .69-1.39 1.25-2.05 1.25zm.34 1.76c1.63 0 3.12-1.29 3.12-2.43a1 1 0 0 0-.89-1 .68.68 0 0 1 .16.5c0 .86-1.31 1.81-2.74 1.81a.6.6 0 0 0-.68.54c0 .44.42.62 1 .62zm-.12.65c.2 1.48 2.46 3.47 3.07 3.42.41 0 .57-1.93.57-3.42 0-.86 0-1.53-.41-1.68a3.59 3.59 0 0 1-3.23 1.68zM36.92 65.96c.53 0 .42-3.24 1.29-3.24.2 0 .27.2.27.45 0 .73-.36 1.81-.36 2.4 0 .3.08.39.22.39.38 0 1-3.56 1.68-3.56.2 0 .3.2.3.4 0 .75-1 2.89-1 3.5 0 .09 0 .17.11.17.39 0 1.18-1.68 1.43-2.52.14-.44.33-.67.5-.67s.3.17.3.53a13.11 13.11 0 0 1-1.47 4.14 10.38 10.38 0 0 0-1.36 3.33 1.64 1.64 0 0 0 .69 1.38c-1-.06-1.41-.16-1.79-.93-1.68 3.31 3.09 3 1.46 5.93-.3-.53-2.65-1.07-2.65-4.15 0-2.66 2.35-4.22 2.35-5.32a.71.71 0 0 0-.28-.58c-.52-.44-.53-.79-.94-.79s-.66.68-.28 1.29c.13.2.24.33.24.51 0 .44-.69 1.6-1.18 1.6s-.85-1.19-.85-3.12c0-1.71.39-3.44.88-3.44.14 0 .19.09.19.22s-.06.61-.06 1.29.17.79.31.79" fill="#fff"/><path d="M40.45 70.96c.66 0 1.21-.48 1.21-1.56v-1.58a2.71 2.71 0 0 1 .46-1.77 2.79 2.79 0 0 0 0 .62c0 1.34.75 2.26.75 3.55 0 .48-.14.75-.52.75s-.33-.33-.41-.33-.16.2-.16.42a.84.84 0 0 0 .89.84 1.07 1.07 0 0 0 1-1.09c0-1.4-1.1-3-1.1-4.45a3.47 3.47 0 0 1 .31-1.43c0 3.1 2.65 5.35 2.65 6.64a.52.52 0 0 1-.55.53.51.51 0 0 1-.53-.5c0-.11 0-.14-.06-.14a.8.8 0 0 0-.38.72 1.17 1.17 0 0 0 1.21 1.14 1.38 1.38 0 0 0 1.38-1.43c0-1.63-3.21-4.11-3.21-6.75a3.63 3.63 0 0 1 .38-1.74 5.34 5.34 0 0 0-2.71 4.62c0 1.34 0 2-.74 2-.36 0-.45-.33-.58-.33s-.14.28-.14.36a.86.86 0 0 0 .85.9M64.69 52.99a7.1 7.1 0 0 0 2.23-.48.86.86 0 0 1 .41-.11c.55 0 .41.62.91.62s.89-.33 1.19-.33c.47 0 1.14 1.46 1.14 2.15s-1.2 1.28-2.63 1.28a3.34 3.34 0 0 1-3.34-3 .16.16 0 0 1 .09-.16zm3.42 2c.69 0 1.21-.31 1.21-.5s-.09-.11-.3-.11a8.64 8.64 0 0 1-1.42-.16c-.66-.11-1.16-.36-1.35-.36s-.09 0-.09.08c0 .41.75 1 1.92 1zM40.95 75.94a2.26 2.26 0 0 0-1.35 2.21 4.36 4.36 0 0 0 4.36 3.87 2.54 2.54 0 0 0 2.85-2.62c0-2.35-1.46-4-3.35-4a1.88 1.88 0 0 0-2 1.85 2.58 2.58 0 0 0 2.65 2.57 1.32 1.32 0 0 0 1.4-1.34 1.73 1.73 0 0 0-1.58-1.66.46.46 0 0 0-.48.48c0 .37.52.75 1.16.75a.85.85 0 0 0 .35-.06.38.38 0 0 1 0 .19c0 .36-.35.58-.88.58a1.53 1.53 0 0 1-1.48-1.54c0-.56.49-1 1.19-1a2.32 2.32 0 0 1 2.23 2.46c0 1.1-.61 1.74-1.86 1.74-2.51 0-3.73-2.24-3.18-4.51M58.74 85.2a7.49 7.49 0 0 0 .95-.06c.24 0 .25.14.25.23 0 .34-.77.76-2.13.76a1.38 1.38 0 0 1-1.43-.89 6.21 6.21 0 0 1-3.15.95c-3.21 0-4-1.39-5-1.84-.77-.34-1.94.33-3.59-1.49a4 4 0 0 0 .75.06c1.44 0 2.21-.7 2.21-1.82a4 4 0 0 0 0-.43 3.09 3.09 0 0 1 1.68 2.24c0 .16.67.3 1.08.3a1.27 1.27 0 0 0 1.4-1.15 3.52 3.52 0 0 0 3.35-2.66 3.72 3.72 0 0 1 1.63 1.14 2.85 2.85 0 0 1 .94-.14 6.09 6.09 0 0 1 1.74.3c0-.2.06-.45.38-.45.47 0 .34.51.5.81s.47.25.47.56a.4.4 0 0 1-.41.41.7.7 0 0 1-.19 0c-.31.11-.33 2.35-1.65 2.35a2.64 2.64 0 0 1-2.26-1.79.67.67 0 0 0-.56-.48c-.25 0-.39 0-.69.37a5.47 5.47 0 0 1-4 1.71H49.88s.53.53 1.69.53c2.76 0 3.43-1.54 3.87-1.54a.36.36 0 0 1 .36.25 3.08 3.08 0 0 0 2.92 1.83zm-1.22-3.11a.63.63 0 1 0 .63-.62.63.63 0 0 0-.63.62zM70.13 75.05c-.22 0-.45.17-.45.59a1 1 0 0 0 .56.85 1 1 0 0 0 .45.12c.46 0 .82-.12.82-.5s-.71-1.07-1.38-1.07zm-1.69 1c-.33 0-2.15 2.41-3.32 2.41-.28 0-.52-.53-.52-.93 0-.22.14-.37.64-.48 2.7-.65 2.1-2.65 4.36-2.65a2.62 2.62 0 0 1 2.68 2.79c0 2.05-2.95 4.61-3.39 4.61s-.75-.51-.75-.86c0-.11 0-.25.36-.37a3.64 3.64 0 0 0 2.36-2.66.28.28 0 0 0-.28-.31c-.27 0-1.41 2.58-2.68 2.58-.88 0-1.77-.79-1.77-1.17 0-.62 2.54-1.77 2.54-2.65 0-.33-.16-.34-.28-.34zM36.94 55.53a1.89 1.89 0 0 1-1 .34 1.17 1.17 0 0 1-1.21-1.2 1.31 1.31 0 0 1 .81-1.27 1.49 1.49 0 0 0 0 .26 1.81 1.81 0 0 0 1.41 1.82zm3.36 3a2.94 2.94 0 0 0-.7 1.77 1.4 1.4 0 0 0 1.32 1.54 1.18 1.18 0 0 0 1.13-1.32 2.3 2.3 0 0 0-1.74-2zm-5.2.62a.3.3 0 0 0 .25.47h.27c.38 0 .8.26 1.41.26a3 3 0 0 0 1.32-.37 3.25 3.25 0 0 0 1.57-2.18c0-.3-.24-.26-.44-.53s-.12-.51-.25-.64a1.39 1.39 0 0 0-.58-.11h-.35a3.2 3.2 0 0 0-1.82.5c-1.36.86-1.16 2.29-1.38 2.64zm3.68-1.93c.11.15.41.33.41.44s-.13.5-.38.5c-.55 0-1-.82-1-1.29 0-.3.17-.33.41-.33a.38.38 0 0 1 .24.06c.14.08.14.39.31.62zm-1.44 1.9a1.29 1.29 0 0 1-1.08-1.21c0-.31.24-.7.41-.7s.09 0 .11.16a1.77 1.77 0 0 0 1.07 1.42s.08 0 .08.08-.3.27-.58.27zm1.33-3.92a3 3 0 0 0 .14-.9c0-.75-.35-1.88-1.41-1.88a1 1 0 0 0-1.05 1.06c0 1.23 1.24 1.73 2.32 1.73zm-4.07 6.2c0 1.18.36 1.74 1 1.74a3.52 3.52 0 0 0 2-1 7 7 0 0 1-1.5.23 1.65 1.65 0 0 1-1.5-.97zm.55-1.38a1.2 1.2 0 0 0 0 .23c0 .73.39 1.14.91 1.14a1.69 1.69 0 0 0 1.25-.75 3.33 3.33 0 0 1-.56 0 1.88 1.88 0 0 1-1.58-.67zm3.84-.22a1.48 1.48 0 0 0-1.11 1.31.92.92 0 0 0 1 .92 1 1 0 0 0 .61-.16 1.81 1.81 0 0 1-.6-1.35 2.07 2.07 0 0 1 .11-.72zm.61-4.26a.63.63 0 1 0 .63-.62.63.63 0 0 0-.63.62zm.81 1.4a.63.63 0 1 0 .63-.62.63.63 0 0 0-.63.62zM65.6 64.1a.605.605 0 0 1 1.21 0 .605.605 0 1 1-1.21 0zm-5.5-4.79a.63.63 0 1 0 .63-.62.63.63 0 0 0-.63.62zm-.5 2.19a.89.89 0 1 0 .89-.89.9.9 0 0 0-.89.89zm2-1a1 1 0 1 0 1-.95.95.95 0 0 0-1 .95zm.08-2a.59.59 0 1 0 .59-.59.59.59 0 0 0-.59.59zm2.84-1.49a.6.6 0 1 0 .6-.59.59.59 0 0 0-.6.59zm-1.18 1.91a1 1 0 1 0 1-1 1 1 0 0 0-1 1zm-1.64 3.63a.63.63 0 1 0 .62-.62.63.63 0 0 0-.62.62zm2.05-1.25a.63.63 0 1 0 .63-.62.63.63 0 0 0-.63.62zm-.58 2.19a1.08 1.08 0 1 0 1.09-1.09 1.08 1.08 0 0 0-1.08 1.07zm2.26-1.32a.74.74 0 1 0 .73-.73.73.73 0 0 0-.73.73zm0-2a.66.66 0 1 0 .66-.65.66.66 0 0 0-.66.65zM66.26 81.1a4.64 4.64 0 0 1-2.95 1 3.91 3.91 0 0 1-1.35-.26c-.16 0-.33.16-.5.36a3.5 3.5 0 0 0-.86 2.13 1.28 1.28 0 0 0 1.39 1.24c2.93 0 5.13-1.82 5.13-3.3 0-.84-.5-1.18-.86-1.18zm-.82-.17a.57.57 0 0 0 .16-.45v-.36c0-.45-.69-.72-1.63-.72-1.15 0-1.76.51-1.76.73v.72c0 .3.69.59 1.54.59a2.63 2.63 0 0 0 1.69-.51zm-.13 1.54c.08 0 .17 0 .17.33a1.36 1.36 0 0 1-.72 1.15 3 3 0 0 1-1.71.5 3.64 3.64 0 0 0 .22-1.13 3 3 0 0 0 0-.36h.2a3.56 3.56 0 0 0 1.86-.48zM59.6 63.4c.17 1.32 2 .65 2 2.25 0 .23-.06.58-.06.87s0 .64.29.64.33-.19.33-.44-.06-.56-.06-.73a.6.6 0 0 1 .63-.67c.6 0 1.05.61 1.95.61-.2 1-2.28.73-2.28 1.82 0 .54.55.67.91.67s.44 0 .44-.33v-.44a.12.12 0 0 1 .13-.12c.35 0 2 1.28 2 1.67s-1.79.72-2.3.72a.17.17 0 0 1-.19-.17c0-.11.27-.44.27-.62s-.24-.23-.86-.23c-.3 0-.52 0-.52.27 0 .42.69.93.69 1.32s-.19.5-.69.5-1.06-.33-1.06-.87.45-.87.45-1.14a.22.22 0 0 0-.25-.2c-.58 0-.74 1.52-2.79 1.7a1.56 1.56 0 0 0 .61-1.29c0-.33-.08-.59-.08-.95s.22-.7.53-.7c.58 0 .86.81 1.24.81a.45.45 0 0 0 .42-.47c0-1.18-2.29-1-2.29-2.68a3.84 3.84 0 0 1 .54-1.8zm7.48 4.56c0 .39.13.84.52.84s.61-.5.61-1-.11-1.11-.11-1.35 0-.15.11-.15c.24 0 .45.65.71.65s.7-.51.88-.51.06.06.06.08c0 .23-.36.75-.36.95s.91.2.91.36-1 .23-1.41.44-.71.42-.71.73.31.37.75.37a6.26 6.26 0 0 0 2-.56.07.07 0 0 1 .08.08c0 .16-.53.67-.53.9s1 .57 1 .73-.08.06-.19.06h-.64a.36.36 0 0 0-.28.08c-.11.12 0 .95-.19.95s-.74-1.84-1.94-1.84c-.17 0-.3.14-.3.37a2.34 2.34 0 0 0 1.19 1.68c.26.17.7.34.7.44s-1 0-1 .33.13.7.13.95c0 .08 0 .17-.11.17s-.64-.86-.86-.86-.6.51-.77.51a.09.09 0 0 1-.08-.09c0-.36.58-1.17.58-2 0-.37 0-1.18-.5-1.18s-.8.59-1 1.18c-.11.34 0 1.66-.28 1.66s-.17-.89-.49-.89-.73.42-.91.42-.05-.06-.05-.06c0-.19.46-.79.46-.92s-1-.26-1-.45.41-.19.78-.25c.8-.14 2-.72 2-1.52s-.88-1.29-1.46-1.67c-.3-.19-.63-.34-.63-.47s.38-.12.53-.12.47 0 .47-.2v-.64c0-.22 0-.28.08-.28.24 0 .56.76.72.76s.6-.62.83-.62c.08 0 .11 0 .11.19 0 .58-.3 1.23-.3 1.79z" fill="#fff"/><path d="M60.41 71.57c.72.09.9.34.9.54s-.31.45-.61.45h-.74a1.19 1.19 0 0 0-1 .4c.2 0 .5.17.5.48 0 .9-2.52.15-2.52 2.47a3 3 0 0 0 3.25 2.49c1 0 1.65-.33 1.65-.7s-.53-.09-.53-.34.19-.31.19-.48-.06-.22-.19-.22a6.31 6.31 0 0 1-1.9.45c-.85 0-1.68-.48-1.68-1.14 0-.14.06-.22.16-.22s.22.06.33.06.11-.06.11-.23 0-.65.3-.65a4.71 4.71 0 0 0 3 1.09 5 5 0 0 0 2.63-.61 4.06 4.06 0 0 1-4.19 4 4.41 4.41 0 0 1-4.47-4.47 4.6 4.6 0 0 1 4.64-4.54c.69 0 1.27.23 1.27.53s-1 .16-1.1.64zm4.81.83a.92.92 0 0 1 .16.5c0 .44-.3.84-.3 1.29a.93.93 0 0 0 1 .93A1.08 1.08 0 0 0 67.16 74c0-.82-.75-1.52-1.93-1.6zm-5.19 1a.63.63 0 0 1 .2.47c0 .23-.11.48-.11.75a.69.69 0 0 0 .69.7.73.73 0 0 0 .74-.75 1.37 1.37 0 0 0-1.51-1.17zm2.08-2.65a2.89 2.89 0 0 1 2.55 2.65 1.41 1.41 0 0 1-1.38 1.52 1.32 1.32 0 0 1-1.38-1.42c0-.65.51-1.34.51-2a1.2 1.2 0 0 0-.3-.79zm.82 2.07a.37.37 0 0 0 .38.39.43.43 0 0 0 .41-.47c0-.33-.3-.78-.58-.78-.13 0-.08.19-.11.39s-.09.34-.09.47zM45.19 57.69c.53 0 1.14-2.86 1.14-3.35 0-.12 0-.22-.16-.22-.49 0-1.16 2.72-1.16 3.33 0 .11 0 .23.17.23zm3.84.86c.39 0 .83-1.49.83-2.43 0-.2 0-.42-.13-.42-.33 0-.88 1.54-.88 2.38 0 .33.08.47.17.47zm-2.56-1.38c.17 0 .39-.19.8-.64a4 4 0 0 0 0-.62c0-.31-.13-.65-.31-.65-.47 0-.71 1.24-.71 1.57s.09.34.19.34zm2.13-.64c0-.27-.06-.33-.13-.33s-.33.19-.58.61c0 .56.13.81.28.81s.42-.54.42-1.09zm1.21-1.84c1 0 1.5.89 1.5 1.88 0 .44-.12 1.07-.33 1.07s-.17-.36-.2-.69-.11-.51-.25-.51-.44.62-.44 1.2c0 .36.06.76.34.76a.57.57 0 0 0 .39-.17 1.4 1.4 0 0 1-1.35 1.34c-1.38 0-1.9-1.6-2.05-2.54a3.82 3.82 0 0 1-3 1.51 1.76 1.76 0 0 1-1.82-1.81c0-.27.09-.95.42-.95s0 1.28.81 1.28c.19 0 .53-.16.72-.67a2.87 2.87 0 0 0 .17-.92c0-.42-.09-.68-.41-.68a1.23 1.23 0 0 0-.71.31 2.36 2.36 0 0 1 2.31-1.7c1.24 0 1.9 1.09 1.9 2.3a3 3 0 0 1 0 .53 2.73 2.73 0 0 1 2.07-1.54z" fill="#fff"/><path d="M47.41 58.4c-.67 0-.71.81-.71 2.44-.5-1.07-1.33-2.22-2.3-2.22-.66 0-.91.44-.91 1.2a2.9 2.9 0 0 0 0 .53.6.6 0 0 1 .64-.37 2.86 2.86 0 0 1 2 1.21 10.5 10.5 0 0 0-1.71-.22 2 2 0 0 0-.83.14 2.07 2.07 0 0 0-.99 1.88 3.14 3.14 0 0 0 0 .51 3.38 3.38 0 0 1 3-1.75 3 3 0 0 1 .44 0 2.52 2.52 0 0 0-.63 1.71c0 .25-.11.27-.28.27 0 .51.41 1.28.41 1.66a.33.33 0 0 1-.16.3c0 .68.69 1.18.69 1.62a.36.36 0 0 1-.08.25c0 .28.81.75.9 1s.26.34.33.34c.27 0 .69-.31.69-.59a.37.37 0 0 0-.14-.25 2.29 2.29 0 0 1-.58-1 .29.29 0 0 1-.3-.23c-.09-.32-.09-.92-.22-1.28-.2 0-.3-.12-.3-.54 0-.2.13-1 .13-1.28a.22.22 0 0 1-.22-.25c0-.5.5-.89.64-1.52a2.28 2.28 0 0 1 1.11 1.91 4.05 4.05 0 0 1-.11.89c.68-.36 1.68-.8 1.68-1.79 0-.58-.27-1.21-2-1.46a5.58 5.58 0 0 1 1.82-.31c1 0 1.58.31 1.71 1a1.93 1.93 0 0 0 .36-1 1.32 1.32 0 0 0-1.46-1.26 5 5 0 0 0-2.71 1.1c.41-.84.69-1.34 1.19-1.34a1.21 1.21 0 0 1 .24 0c-.19-.68-.89-1.35-1.27-1.35M73.45 69.4c.78 0 1.41 1 1.41 2.19a4.87 4.87 0 0 1-1.66 3.56c0-2.1-2.61-1.43-2.61-3a1 1 0 0 1 1-1.09 1.6 1.6 0 0 1 1.18.42 1.38 1.38 0 0 1-.42-1 1.06 1.06 0 0 1 1.1-1.08M59.01 54.98a1.67 1.67 0 0 0 1.21.56h.49c.11 0 .23.06.23.17a1 1 0 0 1-.34.61 1.59 1.59 0 0 0 .61.11 1.84 1.84 0 0 0 1.91-2 2.07 2.07 0 0 1 .3 1 2.24 2.24 0 0 1-2.41 2.35 3.4 3.4 0 0 1-1.23-.25c-.3 0-.28.59-.49.58-.36-.06-.69-.86-.69-1.7a2.47 2.47 0 0 1 .41-1.42zm2.37-1.14a1.18 1.18 0 0 0-.81-.31 1.27 1.27 0 0 0-1.26.92 1.45 1.45 0 0 1-.11-.53 1.51 1.51 0 0 1 1.61-1.52 2.77 2.77 0 0 1 1.53.53c.16 0 .31-.16.44-.16s.17.26.17.45a2.54 2.54 0 0 1-1 2.08 1.59 1.59 0 0 0-.78-.75.25.25 0 0 1-.16-.23.63.63 0 0 1 .34-.48zM48.02 50.09c0 .54 2 3.21 2.34 3.21s.55-.54.55-1a.63.63 0 0 0-.09-.34A9.18 9.18 0 0 0 48.1 50a.09.09 0 0 0-.08.09zm-11.52-1.6a3 3 0 0 1-1.61 1.35c-.16 0-.2-.19-.2-.36a1.38 1.38 0 0 1 .31-.89 1.76 1.76 0 0 1 1-.28c.22 0 .47 0 .47.17zm14.32.9c0-.93-2.54-2.63-2.57-3.36a.27.27 0 0 1 .09-.19c.43-.44 2.26-.79 2.26-1.18 0-.2-.38-.2-.56-.2-1.46 0-3.59.53-3.59 1s1.91 1.82 1.91 2.46c0 .17-.11.23-.28.23-.53 0-1.69-.64-2.24-.64-.25 0-.35.17-.35.42 0 .75.89 2.16.89 2.58 0 0 0 .11-.08.11-.28 0-1.61-1.56-2.09-1.56-.17 0-.19.23-.19.58v.53c0 .36 0 .58-.19.58-.41 0-.6-1.14-1-1.14s-.49 2-.88 2-.06-2.22-.5-2.22-1 1.48-1.38 1.48c-.12 0-.16-.12-.16-.23 0-.45.27-1.18.27-1.62 0-.22-.06-.34-.25-.34-.49 0-1.55.78-2 .78-.06 0-.14 0-.14-.09 0-.37 1.71-1.56 1.71-2.08s-2.35-.17-2.35-.76 1.68-1 1.68-1.52-2-.65-2.76-.65c-.93 0-1.43.11-1.43.37s2.1.53 2.1.89-2.14 1.3-2.14 1.78 3.07 0 3.07.51-2.68 2.82-2.68 3.58c0 .17.13.25.3.25.82 0 2.93-1.54 3.51-1.54.2 0 .22.25.22.47 0 .4-.14 1-.14 1.48s.09.61.41.61c.58 0 1.11-1 1.51-1s.2 2.88 1 2.88.91-3.11 1.32-3.11.74.9 1.11.9.25-1.57.75-1.57 2.12 1.87 2.82 1.87c.22 0 .3-.17.3-.39 0-.82-1.16-2.69-1.16-3.28 0-.16 0-.2.22-.2.61 0 2.4.84 3.25.84.28 0 .46-.16.46-.36zm-1.63-3.08c0 .28 1 .89 1.44.89.27 0 .34-.36.34-.73s-.2-.48-.61-.48-1.18.14-1.18.33zm-3.69-1.58c0-.09-.47-.19-1.11-.19-1 0-.88.84-1.66.84s-.61-.87-1.65-.87c-.63 0-1.21.11-1.21.25s.74.11.74.62-1.58.7-1.58 1c0 .11.12.16.28.16.29.02.89-.14 1.29-.14.22 0 .42 0 .42.25 0 .39-.85 1.09-.85 1.4 0 .09.08.12.16.12.31 0 .85-.79 1.35-.79.83 0 .28 1.76.74 1.76s.27-1.73.94-1.73 1 1.2 1.33 1.2a.18.18 0 0 0 .17-.19c0-.33-.47-1-.47-1.43 0-.26.19-.39.44-.39s.85.22 1.11.22c.09 0 .19 0 .19-.14 0-.37-1.39-.78-1.39-1.26s.77-.48.77-.7zM73.76 47.22c0 1.38-1 2.44-2.85 2.74h.58c2.15 0 2.93-1 2.93-1.77a1 1 0 0 0-.66-1zm-2.65 1.57c0-1.1-2.66-1.38-2.66-1.63s1.49-.54 2.26-.56c-1.18-1.49-2.85-1.34-2.85-1.6a4.87 4.87 0 0 1 2.41-.47c1 0 1.88.22 1.88.95 0 .41-.33.83-.33 1.45a.58.58 0 0 0 .63.64c.49 0 .6-.51.6-1.06s-.08-.79-.08-1a1 1 0 0 1 1.09-1.11c.53 0 .66.23 1.44.23a1.19 1.19 0 0 0-.58.92 16.82 16.82 0 0 1 .42 2.44c0 2.46-2.32 3.33-5.16 3.33a16.39 16.39 0 0 1-2.43-.19c-.12 0-.16 0-.16-.12s1.11-.31 1.11-1.31a7.68 7.68 0 0 0-.13-.9.12.12 0 0 1 .13-.12c.24 0 .71.9 1.58.9a.74.74 0 0 0 .81-.79zm2.55-3.44a.39.39 0 1 0 .39-.39.39.39 0 0 0-.39.39zM71.98 59.71c0-.33-.83-.36-.91-1.28 0-.14-.06-.39-.24-.39s-.06.86-.38.86c-.72 0-1-1.4-1.22-1.4-.06 0-.14 0-.14.23v.48c0 .2 0 .34-.24.34-.42 0-.8-1-1.16-1a.14.14 0 0 0-.16.12c0 .19.31.53.31.7 0 .37-1 .17-1 .48 0 .14.14.19.33.19s.85-.14 1.11-.14.39 0 .39.23-.56.5-.56.7a.16.16 0 0 0 .17.14c.42 0 1.17-.73 1.71-.73.09 0 .33 0 .33.19s-.53.56-.53.86a.16.16 0 0 0 .14.17c.28 0 .66-.73 1.19-.73.2 0 .5.08.66.08s.17-.08.17-.12zm.41 7.55a9.43 9.43 0 0 1 1.08-2.16c-.51-.27-1.87-.83-1.87-1.7a2.41 2.41 0 0 1 1.62-2c.13 0 .16.11.16.31 0 .56-.27 1.46-.27 1.94s.28.86.53.86 1-.93 1-1.85a2.1 2.1 0 0 0-1.91-2.15 9.22 9.22 0 0 1-3 .68c-3.37 0-4.14-3.31-4.14-4.76l.01-.03a2.41 2.41 0 0 0 1.48.41c.55 0 1.05-.14 1.85-.14 1.88 0 2.71 1.29 3.87 2.94.7.44 2.38 1.14 2.38 3.11 0 1.74-1.87 2.71-2.32 4.57.72-.08 1.14-1.35 1.88-1.35.38 0 .55.3.55.76a3.38 3.38 0 0 1-1.15 2.35 1.05 1.05 0 0 0 0-.23c0-.44-.17-1.06-.68-1.06-.78 0-1 .84-1.47 1.54a7.42 7.42 0 0 0-2.11-3.9c-1.11-.89-3-.4-3-2 0-.44.28-1.06.28-1.56a.73.73 0 0 0-.13-.45c1.51.56 1 1.56 1.9 2.58.58.65 2.18 1.28 3.1 4a2.93 2.93 0 0 0 0-.42c0-2.3-3.07-4.56-3.34-5.49 1.78.2 2.1.64 2.95 3a9.67 9.67 0 0 1 .74 2.27z" fill="#fff"/><path d="M63.88 50.86c-1.1 0-1.82-.54-1.82-.82a.22.22 0 0 1 .22-.23c.34 0 1.1.53 1.35.53.06 0 .11 0 .11-.12 0-.28-.27-.75-.27-1 0-.06 0-.11.14-.11.42 0 1.05.17 1.38.17.11 0 .14-.06.14-.12 0-.34-1-1-1-1.21s1.27-.47 1.27-.76-1.72-.09-1.72-.39.33-.59.33-.76-.06-.11-.17-.11-.89.3-1.21.3c-.16 0-.35 0-.35-.25s.61-.75 1.57-.75c1.55 0 2.48 1.06 2.48 2.83a2.49 2.49 0 0 1-2.43 2.8zm-3.06-3c0-.17-.61-.5-.61-.68h.08c.08 0 .47.06.71.06s.24-.87.39-.87.3.82.47.82.58-.23.74-.23h.06s-.39.53-.39.65.88.31.88.44-.89.14-.89.28.33.54.33.68c-.13 0-.61-.22-.75-.22s-.45.64-.59.64-.08-.06-.08-.14v-.62a.11.11 0 0 0-.11-.12h-.77s.63-.56.63-.67zm-.46 2.55c.25 0 .3.61.35 1 0 .19.06.2.14.2s.49-.72.69-.72a6.13 6.13 0 0 0 2.43.82 3.56 3.56 0 0 0 3.68-3.66 3.48 3.48 0 0 0-3.81-3.58 11.61 11.61 0 0 0-2.23.51c-.25 0-.62-.61-.81-.61s-.16.15-.16.42 0 .72-.19.72c-.38 0-1.83-1.07-1.83-.68s1 1.45 1 1.73-1 .54-1 .73c0 .34 1 .4 1 .84s-1.02.8-1.02 1.12 1.07.08 1.07.4-.78 1.42-.78 1.73c0 .08 0 .08.08.08.3 0 1.19-1 1.41-1zM53.6 77.55a.71.71 0 0 1-.17.45 1.16 1.16 0 0 0-.88-.47c-1.61 0-1 2.32-2.73 2.32a8.24 8.24 0 0 1-1-.09c-.11 0-.17 0-.17.14 0 .41.58 1.4 2.2 1.4s3.17-1 3.17-2.2a1.61 1.61 0 0 0-.14-.64.46.46 0 0 1 .36-.16c.25 0 .39.28.63.28a.43.43 0 0 0 .44-.44.47.47 0 0 0-.3-.44.53.53 0 0 0 .22-.42.5.5 0 0 0-.5-.51.45.45 0 0 0-.34.15c0-.28-.19-.54-.49-.54a.4.4 0 0 0-.41.44c0 .25.17.45.17.71" fill="#fff"/><path d="M44.74 74.83c1.25.31 1.88 1 2 1.77a3.44 3.44 0 0 0 .58 1.7 2.72 2.72 0 0 0 1.84.82c.56 0 1-.18 1-.7a2.14 2.14 0 0 0-1.9-1.82h-.41a.76.76 0 0 1-.47-.14c-.25-.22-.33-1.39-.8-2.09a2 2 0 0 0-1.85-1c-.55 0-1.16.3-1.16.73 0 .26.14.45 1.14.7zm4.37 3.48c-.47 0-1.18-.5-1.18-.78a.38.38 0 0 1 .39-.36c.39 0 1.1.48 1.1.89 0 .11-.08.25-.31.25z" fill="#fff"/><path d="M47.87 66.98c0-1 2.38-1.52 2.38-2.75a2 2 0 0 0-.22-.82 2.5 2.5 0 0 1 1.44 1.84c0 1.07-1.13 1.57-1.13 2.24s1.26.91 1.26 1.85c0 .79-1.14 1.71-1.14 2.74a1.56 1.56 0 0 0 1.43 1.56 3.65 3.65 0 0 1-.8.11 3.19 3.19 0 0 1-3.21-2.83A2.65 2.65 0 0 1 48.6 69a2.25 2.25 0 0 0 1.16.62c.25 0 .36-.12.36-.31 0-.58-2.31-1.1-2.31-2.33zm5 7.86c-.54.24-.75.2-.75.75v.61c0 .14 0 .3.25.3a2 2 0 0 0 1.46-1.76c0-.22-.13-.31-.27-.31s-.27.25-.64.42zm-.06-1.12c0-.7-1.46-.72-1.46-1.77a2.42 2.42 0 0 1 .52-1.2 1.69 1.69 0 0 0 1.18 1.49 2 2 0 0 1 1.55 2.16 3.19 3.19 0 0 1-3.5 3.1 3.56 3.56 0 0 1-3.5-3.33c0-.42.11-.89.38-.89s.31.19.5.37a3.28 3.28 0 0 0 2.59.89c1 0 1.74-.4 1.74-.82zM41.54 73.4a.6.6 0 1 1-.66-.52.59.59 0 0 1 .66.52zm-2.94.61a1 1 0 0 0 1.13.87 1.3 1.3 0 0 0 .52-.16 1 1 0 0 0 1.12.74 1 1 0 0 0 .91-1.1 1.11 1.11 0 0 0-.09-.36h.13a1 1 0 0 0 .9-1.1 1 1 0 0 0-1.1-.91 1 1 0 0 0-.52.21 1.06 1.06 0 0 0-1.18-.8 1.05 1.05 0 0 0-.82 1.46h-.16a1 1 0 0 0-.84 1.15z" fill="#fff"/></svg>